<svg xmlns:xlink="http://www.w3.org/1999/xlink" width="737.28pt" height="737.28pt" viewBox="0 0 737.28 737.28"
     xmlns="http://www.w3.org/2000/svg" version="1.1">
    <metadata>

    </metadata>
    <defs>
        <style type="text/css">*{stroke-linejoin: round; stroke-linecap: butt}</style>
    </defs>
    <g id="figure_1">
        <g id="patch_1">
            <path d="M 0 737.28
L 737.28 737.28 
L 737.28 0 
L 0 0 
L 0 737.28 
z
" style="fill: none"/>
        </g>
        <g id="axes_1">
            <g id="patch_2">
                <path d="M 184.32 700.416
L 552.96 700.416 
Q 700.416 700.416 700.416 552.96 
L 700.416 184.32 
Q 700.416 36.864 552.96 36.864 
L 184.32 36.864 
Q 36.864 36.864 36.864 184.32 
L 36.864 552.96 
Q 36.864 700.416 184.32 700.416 
z
" clip-path="url(#p30129abe94)" style="fill: #dc143c"/>
            </g>
            <g id="text_1">
                <!-- FX -->
                <g style="fill: #ffffff" transform="translate(133.5225 500.8965) scale(3.68 -3.68)">
                    <defs>
                        <path id="Arial-BoldMT-46" d="M 472 0
L 472 4581 
L 3613 4581 
L 3613 3806 
L 1397 3806 
L 1397 2722 
L 3309 2722 
L 3309 1947 
L 1397 1947 
L 1397 0 
L 472 0 
z
" transform="scale(0.015625)"/>
                        <path id="Arial-BoldMT-58" d="M 0 0
L 1566 2391 
L 147 4581 
L 1228 4581 
L 2147 3109 
L 3047 4581 
L 4119 4581 
L 2694 2356 
L 4259 0 
L 3144 0 
L 2128 1584 
L 1109 0 
L 0 0 
z
" transform="scale(0.015625)"/>
                    </defs>
                    <use xlink:href="#Arial-BoldMT-46"/>
                    <use xlink:href="#Arial-BoldMT-58" transform="translate(61.083984 0)"/>
                </g>
            </g>
        </g>
    </g>
    <defs>
        <clipPath id="p30129abe94">
            <rect x="0" y="0" width="737.28" height="737.28"/>
        </clipPath>
    </defs>
</svg>
